<svg xmlns="http://www.w3.org/2000/svg" viewBox="0 0 400.712 59.996"><path d="M95.161 20.572h10.222c.184-2.448 1.408-4.9 4.774-4.9 2.816 0 4.591 1.653 4.591 4.652 0 4.04-3.428 4.9-6.978 4.9h-1.959v8.508h1.959c5.448 0 7.835 1.591 7.835 5.57a4.66 4.66 0 01-5.019 5.019c-3.856 0-5.754-2.326-5.815-5.815H94.61c.306 10.1 7.039 14.506 16.343 14.506 9.365 0 14.751-5.386 14.751-12.915 0-5.876-3.06-9.3-7.529-10.773v-.244a10.13 10.13 0 006.733-10.038c0-6.733-5.08-12.119-14.506-12.119-9.12 0-14.874 4.834-15.241 13.649zm65.681-10.895v26.626l-17.51-26.626h-10.467v42.969h10.467V26.142l17.51 26.504h10.467V9.677zm60.347 21.362c0-12.915-9.732-21.974-21.974-21.974-12.18 0-22.1 9.059-22.1 21.974s9.916 22.035 22.1 22.035a21.516 21.516 0 0021.974-22.035zm-33.359 0c0-7.651 4.412-12.482 11.385-12.482 6.855 0 11.327 4.831 11.327 12.482 0 7.529-4.468 12.486-11.323 12.486-6.977.001-11.389-4.957-11.389-12.486zm57.719 11.079l-10.65-32.44h-11.14L239 52.646h13.1l15.242-42.969h-11.081zm26.136 10.528h10.467V9.677h-10.467zM287.967 31.1c0 12.854 8.936 21.851 21.607 21.851 10.222 0 17.934-5.692 20.382-15h-11.507a9.466 9.466 0 01-9 5.509c-6.427 0-10.834-4.774-10.834-12.364s4.407-12.364 10.834-12.364a9.466 9.466 0 019 5.509h11.507c-2.448-9.3-10.161-15.057-20.382-15.057-12.671.004-21.607 9.063-21.607 21.916zm74.735-21.423h-26.32v42.969h26.32v-8.389h-15.853v-9.423h14.017v-8.077h-14.017v-8.694h15.853zm38.011 30.18c0-14.384-21.239-11.017-21.239-18.485 0-2.693 1.9-3.979 4.407-3.917 2.816.061 4.774 1.714 4.958 4.468h11.323c-.429-8.2-6.733-12.854-16.1-12.854-9 0-15.669 4.529-15.669 12.67-.122 15.241 21.362 10.956 21.362 18.913 0 2.51-1.959 4.04-5.019 4.04a4.927 4.927 0 01-5.325-4.9h-11.139c.306 8.692 7.529 13.282 16.771 13.282 10.038 0 15.67-5.998 15.67-13.217z"/><g><rect width="83.245" height="59.996" rx="1"/><path d="M53.191 37.808l6.643-26.271h10.134L59.021 48.458H48.785l-8.032-24.7-8.032 24.7H22.485l-10.947-36.92h10.134l6.677 26.22 8.134-26.22h8.608z" fill="#fff"/></g></svg>